<svg xmlns="http://www.w3.org/2000/svg" xmlns:xlink="http://www.w3.org/1999/xlink" width="1920" zoomAndPan="magnify" viewBox="0 0 1440 809.999993" height="1080" preserveAspectRatio="xMidYMid meet" version="1.0"><defs><g/><clipPath id="0469ca9f06"><path d="M 177.242188 119.375 L 1262 119.375 L 1262 690.875 L 177.242188 690.875 Z M 177.242188 119.375 " clip-rule="nonzero"/></clipPath></defs><g clip-path="url(#0469ca9f06)"><path fill="#000000" d="M 1153.925781 128.679688 L 1153.925781 337.257812 C 1153.925781 342.429688 1149.730469 346.617188 1144.570312 346.617188 L 684.636719 346.617188 C 681.46875 346.617188 678.523438 348.222656 676.792969 350.878906 L 634.070312 416.578125 C 630.019531 422.8125 634.484375 431.046875 641.910156 431.046875 L 1144.570312 431.046875 C 1149.730469 431.046875 1153.925781 435.246094 1153.925781 440.40625 L 1153.925781 681.460938 C 1153.925781 686.621094 1158.109375 690.820312 1163.277344 690.820312 L 1252.464844 690.820312 C 1257.632812 690.820312 1261.816406 686.621094 1261.816406 681.460938 L 1261.816406 128.679688 C 1261.816406 123.519531 1257.632812 119.320312 1252.464844 119.320312 L 1163.277344 119.320312 C 1158.109375 119.320312 1153.925781 123.519531 1153.925781 128.679688 Z M 479.667969 346.617188 L 295.164062 346.617188 C 290 346.617188 285.808594 342.429688 285.808594 337.257812 L 285.808594 128.679688 C 285.808594 123.519531 281.621094 119.320312 276.453125 119.320312 L 187.273438 119.320312 C 182.105469 119.320312 177.917969 123.519531 177.917969 128.679688 L 177.917969 681.460938 C 177.917969 686.621094 182.105469 690.820312 187.273438 690.820312 L 276.453125 690.820312 C 281.621094 690.820312 285.808594 686.621094 285.808594 681.460938 L 285.808594 440.40625 C 285.808594 435.246094 290 431.046875 295.164062 431.046875 L 436.03125 431.046875 C 439.160156 431.046875 442.085938 429.488281 443.820312 426.871094 L 487.460938 361.164062 C 491.59375 354.9375 487.132812 346.617188 479.667969 346.617188 Z M 979.796875 459.140625 L 884.933594 459.140625 C 877.539062 459.140625 873.078125 467.316406 877.054688 473.542969 L 1013.300781 686.5 C 1015.015625 689.191406 1017.980469 690.820312 1021.179688 690.820312 L 1120.347656 690.820312 C 1127.792969 690.820312 1132.257812 682.523438 1128.148438 676.292969 L 1125.851562 672.824219 L 987.601562 463.335938 C 985.867188 460.710938 982.941406 459.140625 979.796875 459.140625 Z M 627.824219 374.710938 L 609.449219 402.964844 L 572.90625 459.140625 L 425.003906 686.554688 C 423.277344 689.210938 420.328125 690.820312 417.164062 690.820312 L 319.636719 690.820312 C 312.171875 690.820312 307.714844 682.488281 311.847656 676.273438 L 313.878906 673.214844 L 456.085938 459.140625 L 493.398438 402.964844 L 512.164062 374.710938 L 549.496094 318.535156 L 679.050781 123.507812 C 680.785156 120.890625 683.707031 119.320312 686.84375 119.320312 L 755.496094 119.320312 C 758.636719 119.320312 761.5625 120.90625 763.300781 123.527344 L 882.429688 304.011719 C 886.539062 310.238281 882.070312 318.535156 874.628906 318.535156 L 783.015625 318.535156 C 779.816406 318.535156 776.847656 316.90625 775.132812 314.21875 L 729.40625 242.742188 C 725.742188 237.011719 717.390625 236.984375 713.679688 242.6875 L 664.347656 318.535156 L 627.824219 374.710938 " fill-opacity="1" fill-rule="nonzero"/></g><g fill="#000000" fill-opacity="1"><g transform="translate(544.695394, 599.274662)"><g><path d="M 38.15625 0 L 27.421875 0 L 27.421875 -16.125 L 15.015625 -16.125 L 15.015625 0 L 4.265625 0 L 4.265625 -39.546875 L 15.015625 -39.546875 L 15.015625 -24.875 L 27.421875 -24.875 L 27.421875 -39.546875 L 38.15625 -39.546875 Z M 38.15625 0 "/></g></g></g><g fill="#000000" fill-opacity="1"><g transform="translate(625.789139, 599.274662)"><g><path d="M 30.125 -12.015625 C 30.125 -9.554688 29.5 -7.375 28.25 -5.46875 C 27.007812 -3.570312 25.21875 -2.09375 22.875 -1.03125 C 20.53125 0.0195312 17.78125 0.546875 14.625 0.546875 C 12 0.546875 9.789062 0.363281 8 0 C 6.21875 -0.375 4.363281 -1.023438 2.4375 -1.953125 L 2.4375 -11.46875 C 4.46875 -10.425781 6.582031 -9.609375 8.78125 -9.015625 C 10.988281 -8.429688 13.007812 -8.140625 14.84375 -8.140625 C 16.4375 -8.140625 17.601562 -8.414062 18.34375 -8.96875 C 19.082031 -9.519531 19.453125 -10.226562 19.453125 -11.09375 C 19.453125 -11.632812 19.300781 -12.109375 19 -12.515625 C 18.695312 -12.921875 18.21875 -13.328125 17.5625 -13.734375 C 16.90625 -14.148438 15.15625 -15 12.3125 -16.28125 C 9.726562 -17.457031 7.789062 -18.59375 6.5 -19.6875 C 5.21875 -20.789062 4.265625 -22.050781 3.640625 -23.46875 C 3.015625 -24.894531 2.703125 -26.582031 2.703125 -28.53125 C 2.703125 -32.175781 4.023438 -35.015625 6.671875 -37.046875 C 9.328125 -39.085938 12.972656 -40.109375 17.609375 -40.109375 C 21.703125 -40.109375 25.875 -39.160156 30.125 -37.265625 L 26.859375 -29.015625 C 23.160156 -30.710938 19.96875 -31.5625 17.28125 -31.5625 C 15.894531 -31.5625 14.882812 -31.316406 14.25 -30.828125 C 13.625 -30.347656 13.3125 -29.742188 13.3125 -29.015625 C 13.3125 -28.242188 13.710938 -27.550781 14.515625 -26.9375 C 15.316406 -26.320312 17.492188 -25.203125 21.046875 -23.578125 C 24.453125 -22.046875 26.816406 -20.398438 28.140625 -18.640625 C 29.460938 -16.890625 30.125 -14.679688 30.125 -12.015625 Z M 30.125 -12.015625 "/></g></g></g><g fill="#000000" fill-opacity="1"><g transform="translate(696.417481, 599.274662)"><g><path d="M 38.15625 0 L 27.421875 0 L 27.421875 -16.125 L 15.015625 -16.125 L 15.015625 0 L 4.265625 0 L 4.265625 -39.546875 L 15.015625 -39.546875 L 15.015625 -24.875 L 27.421875 -24.875 L 27.421875 -39.546875 L 38.15625 -39.546875 Z M 38.15625 0 "/></g></g></g><g fill="#000000" fill-opacity="1"><g transform="translate(777.511238, 599.274662)"><g><path d="M 41.265625 -19.828125 C 41.265625 -13.171875 39.632812 -8.109375 36.375 -4.640625 C 33.113281 -1.179688 28.335938 0.546875 22.046875 0.546875 C 15.835938 0.546875 11.078125 -1.191406 7.765625 -4.671875 C 4.460938 -8.160156 2.8125 -13.226562 2.8125 -19.875 C 2.8125 -26.457031 4.457031 -31.484375 7.75 -34.953125 C 11.039062 -38.421875 15.820312 -40.15625 22.09375 -40.15625 C 28.382812 -40.15625 33.148438 -38.429688 36.390625 -34.984375 C 39.640625 -31.546875 41.265625 -26.492188 41.265625 -19.828125 Z M 14.0625 -19.828125 C 14.0625 -12.179688 16.722656 -8.359375 22.046875 -8.359375 C 24.742188 -8.359375 26.742188 -9.285156 28.046875 -11.140625 C 29.359375 -12.992188 30.015625 -15.890625 30.015625 -19.828125 C 30.015625 -23.773438 29.351562 -26.691406 28.03125 -28.578125 C 26.707031 -30.460938 24.726562 -31.40625 22.09375 -31.40625 C 16.738281 -31.40625 14.0625 -27.546875 14.0625 -19.828125 Z M 14.0625 -19.828125 "/></g></g></g><g fill="#000000" fill-opacity="1"><g transform="translate(860.308643, 599.274662)"><g><path d="M 32.96875 -26.96875 C 32.96875 -22.550781 31.664062 -19.140625 29.0625 -16.734375 C 26.457031 -14.328125 22.753906 -13.125 17.953125 -13.125 L 14.953125 -13.125 L 14.953125 0 L 4.265625 0 L 4.265625 -39.546875 L 17.953125 -39.546875 C 22.953125 -39.546875 26.703125 -38.453125 29.203125 -36.265625 C 31.710938 -34.085938 32.96875 -30.988281 32.96875 -26.96875 Z M 14.953125 -21.828125 L 16.90625 -21.828125 C 18.507812 -21.828125 19.785156 -22.273438 20.734375 -23.171875 C 21.679688 -24.078125 22.15625 -25.320312 22.15625 -26.90625 C 22.15625 -29.570312 20.675781 -30.90625 17.71875 -30.90625 L 14.953125 -30.90625 Z M 14.953125 -21.828125 "/></g></g></g></svg>